<svg version="1.1" id="Layer_1" xmlns="http://www.w3.org/2000/svg" x="0" y="0" viewBox="0 0 256 256" style="enable-background:new 0 0 256 256" xml:space="preserve"><style>.st0{fill:#3a312a}</style><path d="m237.929 124.795-18.585-18.5a4.498 4.498 0 0 0-5.231-.831c-.409.219-.794.49-1.131.827a4.5 4.5 0 0 0 .01 6.366l10.904 10.866h-91.373v-65.54c.002-.056.017-.108.017-.164V32.143l10.851 10.813c1.772 1.753 4.622 1.744 6.361-.014a4.493 4.493 0 0 0-.009-6.366l-18.581-18.514c-1.758-1.758-4.613-1.743-6.366.01l-18.5 18.585a4.498 4.498 0 0 0-.831 5.231 4.501 4.501 0 0 0 7.193 1.121l10.866-10.904v91.418H58.438c-.204-.028-.407-.063-.619-.063H32.143l10.813-10.851c1.753-1.772 1.744-4.622-.014-6.361a4.492 4.492 0 0 0-6.366.01l-18.514 18.581c-1.758 1.758-1.743 4.613.01 6.366l18.585 18.5a4.498 4.498 0 0 0 5.231.831 4.764 4.764 0 0 0 1.131-.826 4.501 4.501 0 0 0-.009-6.366l-10.858-10.82h91.372v65.039c-.028.204-.062.407-.062.619v25.676l-10.851-10.813c-1.772-1.753-4.622-1.744-6.361.014a4.493 4.493 0 0 0 .009 6.366l18.581 18.514c1.758 1.758 4.613 1.743 6.366-.01l18.5-18.585a4.496 4.496 0 0 0 .831-5.231 4.502 4.502 0 0 0-7.193-1.122l-10.82 10.858v-91.326h65.494c.056.002.108.017.164.017h25.676l-10.813 10.851c-1.753 1.772-1.744 4.623.014 6.361a4.493 4.493 0 0 0 6.366-.009l18.514-18.581c1.757-1.758 1.743-4.613-.01-6.367z" style="fill:#87796f"/><path class="st0" d="m238.987 123.731-18.583-18.496a5.993 5.993 0 0 0-6.996-1.095c-.563.3-1.064.666-1.489 1.093a5.968 5.968 0 0 0-1.75 4.256 5.948 5.948 0 0 0 1.765 4.23l8.332 8.303h-86.243V58.064c.009-.079.017-.19.017-.245V35.756l8.297 8.267c2.356 2.331 6.161 2.32 8.477-.02a5.957 5.957 0 0 0 1.757-4.247 5.96 5.96 0 0 0-1.768-4.242l-18.579-18.513c-2.338-2.336-6.145-2.331-8.489.012l-18.497 18.583a5.993 5.993 0 0 0-1.093 6.998 6.239 6.239 0 0 0 1.092 1.487 5.97 5.97 0 0 0 4.237 1.75h.019a5.948 5.948 0 0 0 4.23-1.765l8.303-8.332v86.288H58.544a5.088 5.088 0 0 0-.725-.063H35.755l8.267-8.296a5.984 5.984 0 0 0 1.743-4.251 5.928 5.928 0 0 0-1.763-4.226 5.955 5.955 0 0 0-4.239-1.757h-.008a5.957 5.957 0 0 0-4.242 1.769l-18.512 18.579c-2.337 2.337-2.333 6.145.012 8.489l18.583 18.497a5.992 5.992 0 0 0 6.997 1.095 6.261 6.261 0 0 0 1.488-1.093 5.968 5.968 0 0 0 1.75-4.256 5.95 5.95 0 0 0-1.765-4.23l-8.286-8.258h86.242v63.434a5.1 5.1 0 0 0-.063.725v22.063l-8.296-8.267c-2.357-2.332-6.163-2.319-8.477.02a5.956 5.956 0 0 0-1.757 4.247 5.954 5.954 0 0 0 1.768 4.242l18.579 18.513a5.963 5.963 0 0 0 4.234 1.749c1.54 0 3.081-.587 4.256-1.761l18.497-18.583a5.99 5.99 0 0 0 1.095-6.996 6.233 6.233 0 0 0-1.093-1.489 5.974 5.974 0 0 0-4.237-1.751l-.019.001a5.944 5.944 0 0 0-4.23 1.764l-8.258 8.287v-86.197h9.497a1.5 1.5 0 0 0 0-3h-10.997a1.5 1.5 0 0 0-1.5 1.5v91.327c0 .607.366 1.154.927 1.387.561.23 1.207.103 1.636-.328l10.821-10.859a2.979 2.979 0 0 1 2.113-.881h.009c.8 0 1.554.312 2.12.875.213.213.402.474.552.754a2.99 2.99 0 0 1-.56 3.488l-18.497 18.583a3.006 3.006 0 0 1-4.247.008l-18.581-18.516a2.981 2.981 0 0 1-.885-2.12 2.985 2.985 0 0 1 .883-2.128c1.157-1.168 3.059-1.17 4.237-.006l10.851 10.813a1.5 1.5 0 0 0 2.559-1.063V198.18c0-.108.02-.213.048-.413.009-.068.014-.137.014-.206v-65.039a1.5 1.5 0 0 0-1.5-1.5H32.15a1.5 1.5 0 0 0-1.058 2.563l10.859 10.821c.565.563.878 1.313.881 2.113a2.984 2.984 0 0 1-.875 2.129 3.251 3.251 0 0 1-.753.552 2.99 2.99 0 0 1-3.489-.56l-18.583-18.497c-.566-.566-.88-1.321-.882-2.124s.308-1.556.875-2.122l18.515-18.582a2.977 2.977 0 0 1 2.12-.885h.004a2.98 2.98 0 0 1 2.123.884c.565.559.877 1.307.879 2.106a3.002 3.002 0 0 1-.872 2.13l-10.813 10.851a1.5 1.5 0 0 0 1.062 2.559h25.676c.108 0 .212.02.413.048.068.01.137.015.206.015h65.085a1.5 1.5 0 0 0 1.5-1.5V32.104c0-.607-.366-1.154-.927-1.387a1.502 1.502 0 0 0-1.635.328L111.593 41.95a2.974 2.974 0 0 1-2.113.881c-.78-.012-1.56-.309-2.128-.874a3.28 3.28 0 0 1-.552-.753 2.993 2.993 0 0 1 .559-3.489l18.497-18.583a3.005 3.005 0 0 1 4.246-.008l18.582 18.516c.569.566.884 1.319.885 2.12a2.974 2.974 0 0 1-.884 2.127c-1.157 1.17-3.06 1.17-4.236.007l-10.852-10.813a1.5 1.5 0 0 0-2.559 1.063v25.607a2.348 2.348 0 0 0-.017.232v65.539a1.5 1.5 0 0 0 1.5 1.5h91.373a1.5 1.5 0 0 0 1.059-2.563l-10.904-10.866a2.974 2.974 0 0 1-.881-2.113 2.987 2.987 0 0 1 .874-2.129c.213-.213.474-.402.754-.552a2.99 2.99 0 0 1 3.488.56l18.583 18.496a3.006 3.006 0 0 1 .008 4.247l-18.516 18.582a2.977 2.977 0 0 1-2.12.885h-.004c-.8 0-1.552-.312-2.123-.884-1.17-1.157-1.171-3.06-.007-4.237l10.813-10.85a1.499 1.499 0 0 0-1.063-2.559h-25.601a2.578 2.578 0 0 0-.239-.018h-40.76a1.5 1.5 0 0 0 0 3l40.668-.001c.083.01.196.019.256.019h22.063l-8.267 8.295c-2.331 2.356-2.319 6.162.02 8.478a5.955 5.955 0 0 0 4.238 1.757h.009a5.957 5.957 0 0 0 4.242-1.769l18.513-18.579c2.339-2.336 2.335-6.143-.01-8.49z"/><path d="M107.813 50.722H59.182a8.344 8.344 0 0 0-8.344 8.344v48.631a8.344 8.344 0 0 0 8.344 8.344h48.631a8.344 8.344 0 0 0 8.344-8.344V59.065a8.345 8.345 0 0 0-8.344-8.343z" style="fill:#eb6e7a"/><path class="st0" d="M107.813 49.222H59.182c-5.428 0-9.844 4.416-9.844 9.844v11.57a1.5 1.5 0 1 0 3 0v-11.57a6.852 6.852 0 0 1 6.844-6.844h48.631a6.852 6.852 0 0 1 6.844 6.844v48.631a6.852 6.852 0 0 1-6.844 6.844H59.182a6.852 6.852 0 0 1-6.844-6.844v-22.84a1.5 1.5 0 1 0-3 0v22.84c0 5.428 4.416 9.844 9.844 9.844h48.631c5.428 0 9.844-4.416 9.844-9.844V59.065c-.001-5.427-4.417-9.843-9.844-9.843z"/><path d="M196.818 50.722h-48.631a8.344 8.344 0 0 0-8.344 8.344v48.631a8.344 8.344 0 0 0 8.344 8.344h48.631a8.344 8.344 0 0 0 8.344-8.344V59.065a8.344 8.344 0 0 0-8.344-8.343z" style="fill:#d5dc57"/><path class="st0" d="M196.818 49.222h-48.631c-5.428 0-9.844 4.416-9.844 9.844v48.631c0 5.428 4.416 9.844 9.844 9.844h48.631c5.428 0 9.844-4.416 9.844-9.844V59.065c0-5.427-4.416-9.843-9.844-9.843zm6.844 58.474a6.852 6.852 0 0 1-6.844 6.844h-48.631a6.852 6.852 0 0 1-6.844-6.844V59.065a6.852 6.852 0 0 1 6.844-6.844h48.631a6.852 6.852 0 0 1 6.844 6.844v48.631z"/><path d="M107.813 139.728H59.182a8.344 8.344 0 0 0-8.344 8.344v48.631a8.344 8.344 0 0 0 8.344 8.344h48.631a8.344 8.344 0 0 0 8.344-8.344v-48.631a8.344 8.344 0 0 0-8.344-8.344z" style="fill:#8ac5dc"/><path class="st0" d="M107.813 138.228H59.182c-5.428 0-9.844 4.416-9.844 9.844v48.631c0 5.428 4.416 9.844 9.844 9.844h48.631c5.428 0 9.844-4.416 9.844-9.844v-48.631c-.001-5.428-4.417-9.844-9.844-9.844zm6.843 58.474a6.852 6.852 0 0 1-6.844 6.844h-48.63a6.852 6.852 0 0 1-6.844-6.844v-48.631a6.852 6.852 0 0 1 6.844-6.844h48.631a6.852 6.852 0 0 1 6.844 6.844v48.631z"/><path d="M196.818 139.728h-48.631a8.344 8.344 0 0 0-8.344 8.344v48.631a8.344 8.344 0 0 0 8.344 8.344h48.631a8.344 8.344 0 0 0 8.344-8.344v-48.631a8.344 8.344 0 0 0-8.344-8.344z" style="fill:#fce8cb"/><path class="st0" d="M196.818 138.228h-48.631c-5.428 0-9.844 4.416-9.844 9.844v48.631c0 5.428 4.416 9.844 9.844 9.844h48.631c5.428 0 9.844-4.416 9.844-9.844v-48.631c0-5.428-4.416-9.844-9.844-9.844zm6.844 58.474a6.852 6.852 0 0 1-6.844 6.844h-48.631a6.852 6.852 0 0 1-6.844-6.844v-48.631a6.852 6.852 0 0 1 6.844-6.844h48.631a6.852 6.852 0 0 1 6.844 6.844v48.631z"/><path d="M196.82 52.22h-15c3.77 0 6.84 3.07 6.84 6.85v48.63c0 3.77-3.07 6.84-6.84 6.84h15c3.77 0 6.84-3.07 6.84-6.84V59.07c0-3.78-3.07-6.85-6.84-6.85z" style="fill:#b9c239"/><path d="M196.82 141.23h-15c3.77 0 6.84 3.07 6.84 6.84v48.63c0 3.78-3.07 6.85-6.84 6.85h15c3.77 0 6.84-3.07 6.84-6.85v-48.63c0-3.77-3.07-6.84-6.84-6.84z" style="fill:#decaad"/></svg>